<?xml version="1.0" standalone="no"?><!DOCTYPE svg PUBLIC "-//W3C//DTD SVG 1.1//EN" "http://www.w3.org/Graphics/SVG/1.1/DTD/svg11.dtd"><svg t="1495164737110" class="icon" style="" viewBox="0 0 1024 1024" version="1.1" xmlns="http://www.w3.org/2000/svg" p-id="1439" xmlns:xlink="http://www.w3.org/1999/xlink" width="200" height="200"><defs><style type="text/css"></style></defs><path d="M511.914667 275.626667c-130.474667 0-236.288 105.813333-236.288 236.288 0 130.517333 105.813333 236.245333 236.288 236.245333 130.517333 0 236.245333-105.770667 236.245333-236.245333C748.16 381.44 642.432 275.626667 511.914667 275.626667zM511.914667 157.482667c21.76 0 39.381333-17.621333 39.381333-39.338667L551.296 39.381333c0-21.76-17.621333-39.381333-39.381333-39.381333s-39.381333 17.621333-39.381333 39.381333l0 78.762667C472.533333 139.904 490.154667 157.482667 511.914667 157.482667zM511.914667 866.304c-21.76 0-39.381333 17.664-39.381333 39.381333l0 78.762667c0 21.802667 17.621333 39.424 39.381333 39.424s39.381333-17.621333 39.381333-39.424l0-78.762667C551.296 883.968 533.674667 866.304 511.914667 866.304zM984.405333 472.533333l-78.762667 0c-21.76 0-39.381333 17.621333-39.381333 39.381333 0 21.76 17.621333 39.381333 39.381333 39.381333l78.762667 0c21.802667 0 39.424-17.621333 39.424-39.381333C1023.829333 490.154667 1006.208 472.533333 984.405333 472.533333zM157.482667 511.914667c0-21.76-17.621333-39.381333-39.381333-39.381333L39.381333 472.533333C17.664 472.533333 0 490.154667 0 511.914667c0 21.76 17.664 39.381333 39.381333 39.381333l78.762667 0C139.904 551.296 157.482667 533.674667 157.482667 511.914667zM818.218667 261.333333l55.68-55.68c15.402667-15.402667 15.402667-40.32 0-55.68-15.36-15.36-40.32-15.36-55.68 0l-55.722667 55.68c-15.317333 15.36-15.317333 40.362667 0 55.68C777.813333 276.693333 802.773333 276.693333 818.218667 261.333333zM205.610667 762.496l-55.68 55.722667c-15.36 15.317333-15.36 40.277333 0 55.68 15.36 15.402667 40.277333 15.402667 55.68 0l55.68-55.68c15.36-15.402667 15.402667-40.362667 0-55.722667C245.930667 747.178667 221.013333 747.178667 205.610667 762.496zM818.218667 762.496c-15.402667-15.317333-40.362667-15.317333-55.722667 0s-15.317333 40.277333 0 55.722667l55.722667 55.68c15.317333 15.402667 40.277333 15.402667 55.68 0 15.402667-15.36 15.402667-40.32 0-55.68L818.218667 762.496zM205.610667 149.930667c-15.402667-15.36-40.32-15.36-55.68 0-15.36 15.36-15.36 40.277333 0 55.68l55.68 55.68c15.36 15.36 40.32 15.402667 55.68 0 15.402667-15.317333 15.36-40.32 0-55.68L205.610667 149.930667z" p-id="1440" fill="#f4ea2a" class="selected"></path></svg>